<svg fill="#000000" height="200px" width="200px" version="1.1" id="Layer_1" xmlns="http://www.w3.org/2000/svg" xmlns:xlink="http://www.w3.org/1999/xlink" viewBox="0 0 512 512" xml:space="preserve" transform="rotate(-45)" stroke="#000000" stroke-width="6.656000000000001"><g id="SVGRepo_bgCarrier" stroke-width="0"></g><g id="SVGRepo_tracerCarrier" stroke-linecap="round" stroke-linejoin="round"></g><g id="SVGRepo_iconCarrier"> <g> <g> <path d="M418.921,458.216H117.037c-16.521-32.05-29.277-66.022-38.05-101.056l50.639-169.407l50.046,163.459 c-9.164,4.195-15.528,13.294-15.528,23.824c0,11.426,7.495,21.168,17.928,24.787v34.393c0,4.951,4.012,8.964,8.964,8.964 c4.952,0,8.964-4.013,8.964-8.964v-34.393c10.433-3.618,17.928-13.36,17.928-24.787c0-10.42-6.232-19.445-15.241-23.696 l56.573-165.458l50.62,165.331c-9.164,4.195-15.528,13.294-15.528,23.824c0,11.426,7.495,21.168,17.928,24.787v34.393 c0,4.951,4.012,8.964,8.964,8.964c4.952,0,8.964-4.013,8.964-8.964v-34.393c10.433-3.618,17.928-13.36,17.928-24.787 c0-10.53-6.366-19.629-15.529-23.824l49.3-161.012l46.402,184.694c-4.15,14.164-8.972,28.156-14.471,41.95 c-1.833,4.599,0.409,9.813,5.007,11.646c1.089,0.434,2.212,0.639,3.317,0.639c3.56,0,6.93-2.137,8.329-5.647 c23.013-57.723,34.682-118.772,34.682-181.453c0-65.853-12.79-129.583-38.029-189.632c10.055-3.433,17.317-12.952,17.317-24.156 v-2.707C444.459,11.456,433.003,0,418.921,0H93.53C79.448,0,67.992,11.456,67.992,25.538v2.707 c0,11.057,7.076,20.468,16.926,24.013c-25.278,60.089-38.091,123.87-38.091,189.775c0,39.121,4.725,78.096,13.899,115.925 c0.08,0.833,0.277,1.641,0.577,2.408c8.377,33.794,20.321,66.651,35.653,97.85H93.53c-14.082,0-25.538,11.456-25.538,25.539v2.707 C67.992,500.544,79.448,512,93.53,512h325.391c14.082,0,25.538-11.456,25.538-25.538v-2.707 C444.459,469.672,433.003,458.216,418.921,458.216z M129.523,147.837c-4.943,0-8.964-3.753-8.964-8.366 c0-4.613,4.021-8.366,8.964-8.366s8.964,3.753,8.964,8.366C138.487,144.084,134.466,147.837,129.523,147.837z M191.036,383.403 c-4.943,0-8.964-3.753-8.964-8.366c0-4.606,4.01-8.354,8.944-8.365c0.006,0,0.011,0.001,0.017,0.001c0,0,0.001,0,0.002,0h0.002 c0.006,0,0.012-0.001,0.018-0.001c4.934,0.01,8.945,3.758,8.945,8.365C200,379.649,195.979,383.403,191.036,383.403z M259.73,147.837c-4.943,0-8.964-3.753-8.964-8.366c0-4.613,4.021-8.366,8.964-8.366c4.943,0,8.964,3.753,8.964,8.366 C268.694,144.084,264.673,147.837,259.73,147.837z M321.241,383.403c-4.943,0-8.964-3.753-8.964-8.366 c0-4.606,4.01-8.354,8.944-8.365c0.006,0,0.011,0.001,0.017,0.001c0.001,0,0.002,0,0.004,0s0.002,0,0.004,0 c0.006,0,0.011-0.001,0.017-0.001c4.934,0.011,8.944,3.759,8.944,8.365C330.205,379.649,326.185,383.403,321.241,383.403z M382.756,147.837c-4.943,0-8.964-3.753-8.964-8.366c0-4.613,4.021-8.366,8.964-8.366s8.964,3.753,8.964,8.366 C391.72,144.084,387.699,147.837,382.756,147.837z M85.92,25.538c0-4.196,3.413-7.61,7.61-7.61h325.391 c4.196,0,7.61,3.414,7.61,7.61v2.707c0,4.196-3.413,7.611-7.61,7.611H93.53c-4.196,0-7.61-3.413-7.61-7.611V25.538z M64.756,242.032c0-65.487,13.122-128.789,39.008-188.249h304.472c25.887,59.461,39.007,122.762,39.007,188.249 c0,32.498-3.286,64.533-9.746,95.863l-43.818-174.406c9.399-4.103,15.969-13.322,15.969-24.019 c0-11.426-7.495-21.168-17.928-24.787V80.828c0-4.95-4.012-8.964-8.964-8.964c-4.952,0-8.964,4.013-8.964,8.964v33.855 c-10.433,3.618-17.928,13.36-17.928,24.787c0,10.53,6.366,19.629,15.529,23.824l-50.151,163.795l-50.149-163.795 c9.164-4.195,15.528-13.294,15.528-23.824c0-11.426-7.495-21.168-17.928-24.787V80.427c0-4.951-4.012-8.964-8.964-8.964 c-4.952,0-8.964,4.013-8.964,8.964v34.258c-10.433,3.618-17.928,13.36-17.928,24.787c0,10.42,6.232,19.445,15.241,23.696 l-56.573,165.458l-50.62-165.331c9.164-4.195,15.528-13.294,15.528-23.824c0-11.426-7.495-21.168-17.928-24.787V80.427 c0-4.951-4.012-8.964-8.964-8.964c-4.952,0-8.964,4.013-8.964,8.964v34.258c-10.433,3.618-17.928,13.36-17.928,24.787 c0,10.552,6.393,19.666,15.588,23.85L71.292,320.308C66.964,294.503,64.756,268.302,64.756,242.032z M426.531,486.462 c0,4.196-3.413,7.61-7.61,7.61H93.53c-4.196,0-7.61-3.413-7.61-7.61v-2.707c0-4.196,3.413-7.611,7.61-7.611h325.391 c4.196,0,7.61,3.413,7.61,7.611V486.462z"></path> </g> </g> </g></svg>